<?xml version="1.0" encoding="UTF-8" standalone="no"?>
<!DOCTYPE svg PUBLIC "-//W3C//DTD SVG 1.1//EN"
 "http://www.w3.org/Graphics/SVG/1.1/DTD/svg11.dtd">
<!-- Generated by graphviz version 2.40.1 (0)
 -->
<!-- Title: snakemake_dag Pages: 1 -->
<svg width="362pt" height="188pt"
 viewBox="0.00 0.00 361.50 188.00" xmlns="http://www.w3.org/2000/svg" xmlns:xlink="http://www.w3.org/1999/xlink">
<g id="graph0" class="graph" transform="scale(1 1) rotate(0) translate(4 184)">
<title>snakemake_dag</title>
<polygon fill="#ffffff" stroke="transparent" points="-4,4 -4,-184 357.5,-184 357.5,4 -4,4"/>
<!-- 0 -->
<g id="node1" class="node">
<title>0</title>
<path fill="none" stroke="#d85656" stroke-width="2" d="M170,-36C170,-36 12,-36 12,-36 6,-36 0,-30 0,-24 0,-24 0,-12 0,-12 0,-6 6,0 12,0 12,0 170,0 170,0 176,0 182,-6 182,-12 182,-12 182,-24 182,-24 182,-30 176,-36 170,-36"/>
<text text-anchor="middle" x="91" y="-15.5" font-family="sans" font-size="10.00" fill="#000000">publication_collection_context_figures</text>
</g>
<!-- 1 -->
<g id="node2" class="node">
<title>1</title>
<path fill="none" stroke="#56d8d8" stroke-width="2" d="M142.5,-108C142.5,-108 39.5,-108 39.5,-108 33.5,-108 27.5,-102 27.5,-96 27.5,-96 27.5,-84 27.5,-84 27.5,-78 33.5,-72 39.5,-72 39.5,-72 142.5,-72 142.5,-72 148.5,-72 154.5,-78 154.5,-84 154.5,-84 154.5,-96 154.5,-96 154.5,-102 148.5,-108 142.5,-108"/>
<text text-anchor="middle" x="91" y="-87.5" font-family="sans" font-size="10.00" fill="#000000">collection_context_tables</text>
</g>
<!-- 1&#45;&gt;0 -->
<g id="edge1" class="edge">
<title>1&#45;&gt;0</title>
<path fill="none" stroke="#c0c0c0" stroke-width="2" d="M91,-71.8314C91,-64.131 91,-54.9743 91,-46.4166"/>
<polygon fill="#c0c0c0" stroke="#c0c0c0" stroke-width="2" points="94.5001,-46.4132 91,-36.4133 87.5001,-46.4133 94.5001,-46.4132"/>
</g>
<!-- 2 -->
<g id="node3" class="node">
<title>2</title>
<path fill="none" stroke="#d6d856" stroke-width="2" d="M144,-180C144,-180 38,-180 38,-180 32,-180 26,-174 26,-168 26,-168 26,-156 26,-156 26,-150 32,-144 38,-144 38,-144 144,-144 144,-144 150,-144 156,-150 156,-156 156,-156 156,-168 156,-168 156,-174 150,-180 144,-180"/>
<text text-anchor="middle" x="91" y="-159.5" font-family="sans" font-size="10.00" fill="#000000">publication_cohort_figures</text>
</g>
<!-- 2&#45;&gt;1 -->
<g id="edge2" class="edge">
<title>2&#45;&gt;1</title>
<path fill="none" stroke="#c0c0c0" stroke-width="2" d="M91,-143.8314C91,-136.131 91,-126.9743 91,-118.4166"/>
<polygon fill="#c0c0c0" stroke="#c0c0c0" stroke-width="2" points="94.5001,-118.4132 91,-108.4133 87.5001,-118.4133 94.5001,-118.4132"/>
</g>
<!-- 3 -->
<g id="node4" class="node">
<title>3</title>
<path fill="none" stroke="#59d856" stroke-width="2" d="M341.5,-180C341.5,-180 186.5,-180 186.5,-180 180.5,-180 174.5,-174 174.5,-168 174.5,-168 174.5,-156 174.5,-156 174.5,-150 180.5,-144 186.5,-144 186.5,-144 341.5,-144 341.5,-144 347.5,-144 353.5,-150 353.5,-156 353.5,-156 353.5,-168 353.5,-168 353.5,-174 347.5,-180 341.5,-180"/>
<text text-anchor="middle" x="264" y="-159.5" font-family="sans" font-size="10.00" fill="#000000">publication_mycoplasmatales_figures</text>
</g>
</g>
</svg>
